<svg width="17" height="22" viewBox="0 0 17 22" fill="none" xmlns="http://www.w3.org/2000/svg">
<path d="M8.5 22C11.3628 19.4944 13.4952 17.1646 14.8971 15.0104C16.299 12.8562 17 10.8625 17 9.02917C17 6.24861 16.1441 4.04861 14.4323 2.42917C12.7205 0.809723 10.7431 0 8.5 0C6.25694 0 4.27951 0.809723 2.56771 2.42917C0.855903 4.04861 0 6.24861 0 9.02917C0 10.8625 0.700955 12.8562 2.10286 15.0104C3.50477 17.1646 5.63715 19.4944 8.5 22ZM8.5 11.4583C7.88021 11.4583 7.35634 11.2368 6.92838 10.7937C6.50043 10.3507 6.28646 9.80833 6.28646 9.16667C6.28646 8.525 6.50043 7.98264 6.92838 7.53958C7.35634 7.09653 7.88021 6.875 8.5 6.875C9.11979 6.875 9.64366 7.09653 10.0716 7.53958C10.4996 7.98264 10.7135 8.525 10.7135 9.16667C10.7135 9.80833 10.4996 10.3507 10.0716 10.7937C9.64366 11.2368 9.11979 11.4583 8.5 11.4583Z" fill="#fff"/>
<path d="M8.5 22C11.3628 19.4944 13.4952 17.1646 14.8971 15.0104C16.299 12.8562 17 10.8625 17 9.02917C17 6.24861 16.1441 4.04861 14.4323 2.42917C12.7205 0.809723 10.7431 0 8.5 0C6.25694 0 4.27951 0.809723 2.56771 2.42917C0.855903 4.04861 0 6.24861 0 9.02917C0 10.8625 0.700955 12.8562 2.10286 15.0104C3.50477 17.1646 5.63715 19.4944 8.5 22ZM8.5 11.4583C7.88021 11.4583 7.35634 11.2368 6.92838 10.7937C6.50043 10.3507 6.28646 9.80833 6.28646 9.16667C6.28646 8.525 6.50043 7.98264 6.92838 7.53958C7.35634 7.09653 7.88021 6.875 8.5 6.875C9.11979 6.875 9.64366 7.09653 10.0716 7.53958C10.4996 7.98264 10.7135 8.525 10.7135 9.16667C10.7135 9.80833 10.4996 10.3507 10.0716 10.7937C9.64366 11.2368 9.11979 11.4583 8.5 11.4583Z" fill="#fff"/>
</svg>
