<svg width="28" height="27" viewBox="0 0 28 27" fill="none" xmlns="http://www.w3.org/2000/svg">
<path d="M25.925 27C22.7 27 19.5565 26.281 16.4945 24.843C13.4315 23.406 10.719 21.506 8.357 19.143C5.994 16.781 4.094 14.0685 2.657 11.0055C1.219 7.9435 0.5 4.8 0.5 1.575C0.5 1.125 0.65 0.75 0.95 0.45C1.25 0.15 1.625 0 2.075 0H8.15C8.5 0 8.8125 0.1125 9.0875 0.3375C9.3625 0.5625 9.525 0.85 9.575 1.2L10.55 6.45C10.6 6.8 10.594 7.1185 10.532 7.4055C10.469 7.6935 10.325 7.95 10.1 8.175L6.5 11.85C7.55 13.65 8.8625 15.3375 10.4375 16.9125C12.0125 18.4875 13.75 19.85 15.65 21L19.175 17.475C19.4 17.25 19.694 17.081 20.057 16.968C20.419 16.856 20.775 16.825 21.125 16.875L26.3 17.925C26.65 18 26.9375 18.1685 27.1625 18.4305C27.3875 18.6935 27.5 19 27.5 19.35V25.425C27.5 25.875 27.35 26.25 27.05 26.55C26.75 26.85 26.375 27 25.925 27Z" fill="#283846"/>
</svg>
